<svg width="1024" height="1024" viewBox="0 0 1024 1024" fill="none" xmlns="http://www.w3.org/2000/svg">
<path d="M653.641 769V469.197H539.821C512.207 469.197 489.821 446.811 489.821 419.197C489.821 391.583 512.207 369.197 539.821 369.197H867.321C894.935 369.197 917.321 391.583 917.321 419.197C917.321 446.811 894.935 469.197 867.321 469.197H753.641V769C753.641 791.166 749.176 812.376 738.362 831.062C727.386 850.027 711.826 863.004 695.214 871.508C664.662 887.148 628.441 888.5 602.871 888.5C575.257 888.5 552.871 866.114 552.871 838.5C552.871 810.886 575.257 788.5 602.871 788.5C614.671 788.5 624.708 788.049 633.199 786.851C641.799 785.637 646.887 783.905 649.646 782.493C650.89 781.857 651.426 781.403 651.576 781.267C651.683 781.169 651.722 781.124 651.81 780.972C651.902 780.813 653.641 777.835 653.641 769ZM261.984 831.5V531.95C236.502 538.52 210.196 541.923 183.476 541.923C155.862 541.923 133.476 519.537 133.476 491.923C133.476 464.309 155.862 441.923 183.476 441.923C219.776 441.923 255.34 432.707 288.153 414.917C320.936 397.143 351.314 370.608 376.66 335.684C392.879 313.335 424.146 308.366 446.495 324.585C468.844 340.804 473.812 372.07 457.592 394.419C430.458 431.808 398.117 463.071 361.984 487.074V831.5C361.984 859.114 339.598 881.5 311.984 881.5C284.37 881.5 261.984 859.114 261.984 831.5ZM362.669 136.722C377.365 113.343 408.23 106.304 431.609 121C454.988 135.696 462.028 166.561 447.332 189.94C392.27 277.535 303.695 349.461 195.614 364.165C168.252 367.888 143.052 348.723 139.33 321.361C135.607 293.999 154.771 268.801 182.133 265.078C253.538 255.364 318.96 206.256 362.669 136.722ZM787 189.94C814.614 189.94 837 212.326 837 239.94C837 267.555 814.614 289.94 787 289.94L541.667 289.772C514.052 289.772 491.667 267.387 491.667 239.772C491.667 212.158 514.052 189.772 541.667 189.772L787 189.94Z" fill="black" style="fill:black;fill-opacity:1;"/>
</svg>
